<svg width="12" height="12" viewBox="0 0 12 12" fill="none" xmlns="http://www.w3.org/2000/svg">
<mask id="mask0_183_104" style="mask-type:luminance" maskUnits="userSpaceOnUse" x="0" y="0" width="11" height="12">
<path d="M10.9 0H0.5V12H10.9V0Z" fill="white"/>
</mask>
<g mask="url(#mask0_183_104)">
<path d="M6.88867 9.74999C6.84414 9.75029 6.79999 9.74081 6.75876 9.72215C6.71754 9.70349 6.68004 9.67601 6.64843 9.64121C6.61672 9.60635 6.59154 9.56489 6.57436 9.51923C6.55719 9.47351 6.54834 9.42449 6.54834 9.37499C6.54834 9.32549 6.55719 9.27647 6.57436 9.23075C6.59154 9.18509 6.61672 9.14363 6.64843 9.10871L9.4568 5.99999L6.64843 2.89124C6.58472 2.82063 6.54892 2.72486 6.54892 2.62499C6.54892 2.52513 6.58472 2.42936 6.64843 2.35874C6.71214 2.28813 6.79856 2.24846 6.88867 2.24846C6.97877 2.24846 7.06519 2.28813 7.1289 2.35874L10.1741 5.73374C10.2058 5.7686 10.231 5.81008 10.2482 5.85578C10.2654 5.90147 10.2742 5.95049 10.2742 5.99999C10.2742 6.04949 10.2654 6.09851 10.2482 6.14423C10.231 6.18989 10.2058 6.23135 10.1741 6.26621L7.1289 9.64121C7.09728 9.67601 7.05979 9.70349 7.01856 9.72215C6.97734 9.74081 6.9332 9.75029 6.88867 9.74999Z" fill="#333333"/>
<path d="M9.93411 6.375H1.81346C1.72372 6.375 1.63766 6.33552 1.5742 6.26514C1.51074 6.19482 1.4751 6.09948 1.4751 6C1.4751 5.90054 1.51074 5.80516 1.5742 5.73484C1.63766 5.66451 1.72372 5.625 1.81346 5.625H9.93411C10.0238 5.625 10.1099 5.66451 10.1734 5.73484C10.2368 5.80516 10.2724 5.90054 10.2724 6C10.2724 6.09948 10.2368 6.19482 10.1734 6.26514C10.1099 6.33552 10.0238 6.375 9.93411 6.375Z" fill="#333333"/>
</g>
</svg>
