<svg width="16" height="20" viewBox="0 0 16 20" fill="none" xmlns="http://www.w3.org/2000/svg">
<g clip-path="url(#clip0_92_13)">
<path d="M9.29273 16.25C9.22796 16.2505 9.16375 16.2347 9.10378 16.2036C9.04382 16.1725 8.98928 16.1267 8.94329 16.0687C8.89717 16.0106 8.86055 15.9415 8.83556 15.8654C8.81058 15.7892 8.79771 15.7075 8.79771 15.625C8.79771 15.5425 8.81058 15.4608 8.83556 15.3846C8.86055 15.3085 8.89717 15.2394 8.94329 15.1812L13.0282 10L8.94329 4.81875C8.85062 4.70106 8.79855 4.54144 8.79855 4.375C8.79855 4.20856 8.85062 4.04894 8.94329 3.93125C9.03597 3.81356 9.16166 3.74744 9.29273 3.74744C9.42379 3.74744 9.54949 3.81356 9.64216 3.93125L14.0716 9.55625C14.1177 9.61435 14.1543 9.68348 14.1793 9.75964C14.2043 9.8358 14.2172 9.91749 14.2172 10C14.2172 10.0825 14.2043 10.1642 14.1793 10.2404C14.1543 10.3165 14.1177 10.3856 14.0716 10.4437L9.64216 16.0687C9.59617 16.1267 9.54164 16.1725 9.48167 16.2036C9.42171 16.2347 9.3575 16.2505 9.29273 16.25Z" fill="white"/>
<path d="M13.7222 10.625H1.91034C1.77981 10.625 1.65463 10.5592 1.56233 10.4419C1.47003 10.3247 1.41818 10.1658 1.41818 10C1.41818 9.83424 1.47003 9.67527 1.56233 9.55806C1.65463 9.44085 1.77981 9.375 1.91034 9.375H13.7222C13.8527 9.375 13.9779 9.44085 14.0702 9.55806C14.1625 9.67527 14.2143 9.83424 14.2143 10C14.2143 10.1658 14.1625 10.3247 14.0702 10.4419C13.9779 10.5592 13.8527 10.625 13.7222 10.625Z" fill="white"/>
</g>
<defs>
<clipPath id="clip0_92_13">
<rect width="15.1273" height="20" fill="white"/>
</clipPath>
</defs>
</svg>
