<svg width="21" height="22" viewBox="0 0 21 22" fill="none" xmlns="http://www.w3.org/2000/svg">
<g clip-path="url(#clip0_157_141)">
<path d="M7.18952 16.7016C7.18952 16.7822 7.09677 16.8468 6.97984 16.8468C6.84677 16.8589 6.75403 16.7943 6.75403 16.7016C6.75403 16.621 6.84677 16.5564 6.96371 16.5564C7.08468 16.5443 7.18952 16.6089 7.18952 16.7016ZM5.93548 16.5202C5.90726 16.6008 5.9879 16.6935 6.10887 16.7177C6.21371 16.7581 6.33468 16.7177 6.35887 16.6371C6.38306 16.5564 6.30645 16.4637 6.18548 16.4274C6.08065 16.3992 5.96371 16.4395 5.93548 16.5202ZM7.71774 16.4516C7.60081 16.4798 7.52016 16.5564 7.53226 16.6492C7.54435 16.7298 7.64919 16.7823 7.77016 16.754C7.8871 16.7258 7.96774 16.6492 7.95564 16.5685C7.94355 16.4919 7.83468 16.4395 7.71774 16.4516ZM10.371 0.999992C4.77823 0.999992 0.5 5.24596 0.5 10.8387C0.5 15.3105 3.31452 19.1371 7.33468 20.4839C7.85081 20.5766 8.03226 20.2581 8.03226 19.996C8.03226 19.746 8.02016 18.3669 8.02016 17.5202C8.02016 17.5202 5.19758 18.125 4.60484 16.3185C4.60484 16.3185 4.14516 15.1452 3.48387 14.8427C3.48387 14.8427 2.56048 14.2097 3.54839 14.2218C3.54839 14.2218 4.55242 14.3024 5.10484 15.2621C5.9879 16.8185 7.46774 16.371 8.04435 16.1048C8.1371 15.4597 8.39919 15.0121 8.68952 14.746C6.43548 14.496 4.16129 14.1693 4.16129 10.2903C4.16129 9.18144 4.46774 8.62499 5.1129 7.91531C5.00806 7.65322 4.66532 6.57257 5.21774 5.17741C6.06048 4.91531 8 6.26612 8 6.26612C8.80645 6.04032 9.67339 5.92338 10.5323 5.92338C11.3911 5.92338 12.2581 6.04032 13.0645 6.26612C13.0645 6.26612 15.004 4.91128 15.8468 5.17741C16.3992 6.5766 16.0565 7.65322 15.9516 7.91531C16.5968 8.62902 16.9919 9.18548 16.9919 10.2903C16.9919 14.1814 14.6169 14.4919 12.3629 14.746C12.7339 15.0645 13.0484 15.6693 13.0484 16.6169C13.0484 17.9758 13.0363 19.6572 13.0363 19.9879C13.0363 20.25 13.2218 20.5685 13.7339 20.4758C17.7661 19.1371 20.5 15.3105 20.5 10.8387C20.5 5.24596 15.9637 0.999992 10.371 0.999992ZM4.41935 14.9072C4.36694 14.9476 4.37903 15.0403 4.44758 15.1169C4.5121 15.1814 4.60484 15.2097 4.65726 15.1573C4.70968 15.1169 4.69758 15.0242 4.62903 14.9476C4.56452 14.8831 4.47177 14.8548 4.41935 14.9072ZM3.98387 14.5806C3.95565 14.6331 3.99597 14.6976 4.07661 14.7379C4.14113 14.7782 4.22177 14.7661 4.25 14.7097C4.27823 14.6573 4.2379 14.5927 4.15726 14.5524C4.07661 14.5282 4.0121 14.5403 3.98387 14.5806ZM5.29032 16.0161C5.22581 16.0685 5.25 16.1895 5.34274 16.2661C5.43548 16.3589 5.55242 16.371 5.60484 16.3064C5.65726 16.254 5.63306 16.1331 5.55242 16.0564C5.46371 15.9637 5.34274 15.9516 5.29032 16.0161ZM4.83065 15.4234C4.76613 15.4637 4.76613 15.5685 4.83065 15.6613C4.89516 15.754 5.00403 15.7943 5.05645 15.754C5.12097 15.7016 5.12097 15.5968 5.05645 15.504C5 15.4113 4.89516 15.371 4.83065 15.4234Z" fill="#333333"/>
</g>
<defs>
<clipPath id="clip0_157_141">
<rect width="20" height="20.6452" fill="white" transform="translate(0.5 0.677414)"/>
</clipPath>
</defs>
</svg>
