<svg width="21" height="20" viewBox="0 0 21 20" fill="none" xmlns="http://www.w3.org/2000/svg">
<g clip-path="url(#clip0_158_148)">
<path d="M14.25 10C14.25 10.8672 14.2031 11.7031 14.1211 12.5H6.87891C6.79297 11.7031 6.75 10.8672 6.75 10C6.75 9.13281 6.79688 8.29688 6.87891 7.5H14.1211C14.207 8.29688 14.25 9.13281 14.25 10ZM15.375 7.5H20.1836C20.3906 8.30078 20.5 9.13672 20.5 10C20.5 10.8633 20.3906 11.6992 20.1836 12.5H15.375C15.457 11.6953 15.5 10.8594 15.5 10C15.5 9.14062 15.457 8.30469 15.375 7.5ZM19.7734 6.25H15.2148C14.8242 3.75391 14.0508 1.66406 13.0547 0.328125C16.1133 1.13672 18.6016 3.35547 19.7695 6.25H19.7734ZM13.9492 6.25H7.05078C7.28906 4.82812 7.65625 3.57031 8.10547 2.55078C8.51562 1.62891 8.97266 0.960938 9.41406 0.539062C9.85156 0.125 10.2148 0 10.5 0C10.7852 0 11.1484 0.125 11.5859 0.539062C12.0273 0.960938 12.4844 1.62891 12.8945 2.55078C13.3477 3.56641 13.7109 4.82422 13.9492 6.25ZM5.78516 6.25H1.22656C2.39844 3.35547 4.88281 1.13672 7.94531 0.328125C6.94922 1.66406 6.17578 3.75391 5.78516 6.25ZM0.816406 7.5H5.625C5.54297 8.30469 5.5 9.14062 5.5 10C5.5 10.8594 5.54297 11.6953 5.625 12.5H0.816406C0.609375 11.6992 0.5 10.8633 0.5 10C0.5 9.13672 0.609375 8.30078 0.816406 7.5ZM8.10547 17.4453C7.65234 16.4297 7.28906 15.1719 7.05078 13.75H13.9492C13.7109 15.1719 13.3438 16.4297 12.8945 17.4453C12.4844 18.3672 12.0273 19.0352 11.5859 19.457C11.1484 19.875 10.7852 20 10.5 20C10.2148 20 9.85156 19.875 9.41406 19.4609C8.97266 19.0391 8.51562 18.3711 8.10547 17.4492V17.4453ZM5.78516 13.75C6.17578 16.2461 6.94922 18.3359 7.94531 19.6719C4.88281 18.8633 2.39844 16.6445 1.22656 13.75H5.78516ZM19.7734 13.75C18.6016 16.6445 16.1172 18.8633 13.0586 19.6719C14.0547 18.3359 14.8242 16.2461 15.2188 13.75H19.7734Z" fill="#333333"/>
</g>
<defs>
<clipPath id="clip0_158_148">
<rect width="20" height="20" fill="white" transform="translate(0.5)"/>
</clipPath>
</defs>
</svg>
