<svg width="19" height="22" viewBox="0 0 19 22" fill="none" xmlns="http://www.w3.org/2000/svg">
<g clip-path="url(#clip0_157_136)">
<path d="M17.2143 2H1.7817C1.07455 2 0.5 2.58259 0.5 3.29777V18.7022C0.5 19.4174 1.07455 20 1.7817 20H17.2143C17.9214 20 18.5 19.4174 18.5 18.7022V3.29777C18.5 2.58259 17.9214 2 17.2143 2ZM5.94018 17.4286H3.27232V8.83839H5.9442V17.4286H5.94018ZM4.60625 7.66518C3.75045 7.66518 3.05938 6.97009 3.05938 6.1183C3.05938 5.26652 3.75045 4.57143 4.60625 4.57143C5.45804 4.57143 6.15312 5.26652 6.15312 6.1183C6.15312 6.97411 5.46205 7.66518 4.60625 7.66518ZM15.9406 17.4286H13.2728V13.25C13.2728 12.2536 13.2527 10.9719 11.8866 10.9719C10.4964 10.9719 10.2835 12.0567 10.2835 13.1777V17.4286H7.61563V8.83839H10.175V10.0116H10.2112C10.5687 9.33661 11.4406 8.62545 12.7384 8.62545C15.4384 8.62545 15.9406 10.4054 15.9406 12.7196V17.4286Z" fill="#333333"/>
</g>
<defs>
<clipPath id="clip0_157_136">
<rect width="18" height="20.5714" fill="white" transform="translate(0.5 0.714287)"/>
</clipPath>
</defs>
</svg>
