<svg width="37" height="37" viewBox="0 0 37 37" fill="none" xmlns="http://www.w3.org/2000/svg">
<path d="M27.4956 7.11088C25.1098 4.72509 21.874 3.38477 18.5 3.38477C15.126 3.38477 11.8902 4.72509 9.50437 7.11088C7.11858 9.49666 5.77826 12.7325 5.77826 16.1065C5.77826 19.4805 7.11858 22.7163 9.50437 25.1021L14.245 29.8427C14.3528 29.9506 14.4808 30.0361 14.6216 30.0944C14.7625 30.1528 14.9135 30.1828 15.0659 30.1828C15.2184 30.1828 15.3694 30.1528 15.5102 30.0944C15.6511 30.0361 15.7791 29.9506 15.8869 29.8427C15.9947 29.7349 16.0802 29.607 16.1385 29.4661C16.1969 29.3252 16.2269 29.1743 16.2269 29.0218C16.2269 28.8694 16.1969 28.7184 16.1385 28.5775C16.0802 28.4367 15.9947 28.3087 15.8869 28.2009L11.1462 23.4603C9.68961 22.0054 8.69722 20.1512 8.29465 18.1323C7.89207 16.1133 8.09739 14.0203 8.88463 12.118C9.67188 10.2158 11.0057 8.58979 12.7172 7.44576C14.4288 6.30174 16.4413 5.69109 18.5 5.69109C20.5587 5.69109 22.5712 6.30174 24.2827 7.44576C25.9943 8.58979 27.3281 10.2158 28.1154 12.118C28.9026 14.0203 29.1079 16.1133 28.7053 18.1323C28.3028 20.1512 27.3104 22.0054 25.8537 23.4603L17.6791 31.6349C17.5707 31.7424 17.4847 31.8703 17.426 32.0112C17.3673 32.1521 17.337 32.3032 17.337 32.4559C17.337 32.6085 17.3673 32.7596 17.426 32.9005C17.4847 33.0414 17.5707 33.1693 17.6791 33.2768C17.7865 33.3852 17.9144 33.4712 18.0553 33.5299C18.1962 33.5886 18.3474 33.6188 18.5 33.6188C18.6526 33.6188 18.8038 33.5886 18.9447 33.5299C19.0856 33.4712 19.2134 33.3852 19.3209 33.2768L27.4956 25.1021C28.6773 23.921 29.6147 22.5186 30.2542 20.9751C30.8938 19.4316 31.223 17.7773 31.223 16.1065C31.223 14.4357 30.8938 12.7814 30.2542 11.2379C29.6147 9.69437 28.6773 8.292 27.4956 7.11088Z" fill="#D2221C"/>
<path d="M24.2812 16.1875C24.2812 15.0441 23.9422 13.9263 23.3069 12.9756C22.6717 12.0249 21.7688 11.2839 20.7124 10.8463C19.656 10.4088 18.4936 10.2943 17.3721 10.5173C16.2507 10.7404 15.2205 11.291 14.412 12.0995C13.6035 12.9081 13.0529 13.9382 12.8298 15.0596C12.6068 16.1811 12.7212 17.3435 13.1588 18.3999C13.5964 19.4563 14.3374 20.3592 15.2881 20.9944C16.2388 21.6297 17.3566 21.9688 18.5 21.9688C20.0333 21.9688 21.5038 21.3597 22.5879 20.2755C23.6721 19.1913 24.2812 17.7208 24.2812 16.1875ZM15.0312 16.1875C15.0312 15.5014 15.2347 14.8308 15.6158 14.2604C15.997 13.6899 16.5387 13.2453 17.1726 12.9828C17.8064 12.7203 18.5038 12.6516 19.1767 12.7854C19.8496 12.9192 20.4677 13.2496 20.9528 13.7347C21.4379 14.2198 21.7682 14.8379 21.9021 15.5108C22.0359 16.1837 21.9672 16.8811 21.7047 17.5149C21.4422 18.1488 20.9976 18.6905 20.4271 19.0717C19.8567 19.4528 19.186 19.6563 18.5 19.6563C17.58 19.6563 16.6977 19.2908 16.0472 18.6403C15.3967 17.9898 15.0312 17.1075 15.0312 16.1875Z" fill="#D2221C"/>
</svg>
