<svg width="32" height="32" viewBox="0 0 32 32" fill="none" xmlns="http://www.w3.org/2000/svg">
<path d="M16 27C16 27 15.997 27 15.995 27C15.686 26.997 8.407 26.926 6.091 26.698C5.945 26.672 5.822 26.657 5.684 26.64C4.91 26.544 3.615 26.384 2.575 25.263C1.61 24.259 1.306 22.119 1.294 22.028C1.281 21.919 1 19.545 1 17.128V14.862C1 12.444 1.281 10.07 1.293 9.97C1.307 9.871 1.61 7.731 2.581 6.72C3.699 5.515 4.944 5.391 5.613 5.324L5.788 5.305C9.841 5.003 15.933 5 15.994 5C16.067 5 22.159 5.003 26.189 5.303L26.387 5.324C27.056 5.39 28.301 5.514 29.424 6.726C30.389 7.731 30.694 9.871 30.706 9.961C30.719 10.07 31 12.444 31 14.862V17.128C31 19.546 30.719 21.92 30.707 22.02C30.693 22.119 30.389 24.259 29.417 25.27C28.301 26.475 27.057 26.6 26.388 26.667L26.212 26.686C22.159 26.988 16.062 27 16 27ZM16.006 6C15.934 6 9.878 6.003 5.885 6.3L5.712 6.319C5.137 6.376 4.175 6.472 3.309 7.406C2.682 8.06 2.357 9.57 2.285 10.098C2.283 10.113 2 12.506 2 14.862V17.128C2 19.486 2.283 21.877 2.286 21.9C2.358 22.42 2.684 23.932 3.302 24.576C4.099 25.435 5.086 25.557 5.807 25.647C5.971 25.668 6.116 25.686 6.235 25.709C8.445 25.925 15.826 25.998 16.002 26C16.162 26 22.155 25.985 26.115 25.69L26.289 25.671C26.864 25.613 27.826 25.517 28.691 24.583C29.318 23.93 29.643 22.419 29.716 21.892C29.717 21.876 30 19.484 30 17.128V14.862C30 12.506 29.717 10.113 29.714 10.089C29.642 9.569 29.315 8.057 28.696 7.412C27.825 6.472 26.863 6.376 26.288 6.319L26.091 6.298C22.122 6.003 16.066 6 16.006 6Z" fill="#D2221C"/>
<path d="M12.5 20.0001C12.405 20.0001 12.31 19.9731 12.228 19.9191C12.085 19.8271 12 19.6691 12 19.5001V13.5311C12 13.2551 12.224 13.0311 12.5 13.0311C12.776 13.0311 13 13.2551 13 13.5311V18.7301L20.269 15.5001L12.297 11.9571C12.045 11.8451 11.931 11.5491 12.043 11.2971C12.155 11.0451 12.451 10.9311 12.703 11.0431L21.703 15.0431C21.884 15.1241 22 15.3021 22 15.5001C22 15.6981 21.884 15.8761 21.703 15.9571L12.703 19.9571C12.638 19.9861 12.569 20.0001 12.5 20.0001Z" fill="#D2221C"/>
</svg>
