<svg width="32" height="32" viewBox="0 0 32 32" fill="none" xmlns="http://www.w3.org/2000/svg">
<path d="M17.5 29.5V19.5H13.5V15.5H17.5V10.5C17.5 8.291 19.291 6.5 21.5 6.5H25.5V10.5H22.5C21.9473 10.5 21.5 10.9473 21.5 11.5V15.5H25.5L25 19.5H21.5V29.5" stroke="#D2221C" stroke-miterlimit="10" stroke-linecap="round" stroke-linejoin="round"/>
<path d="M15.4998 29.5H4.5C3.3955 29.5 2.5 28.6045 2.5 27.5V4.5C2.5 3.3955 3.3955 2.5 4.5 2.5H27.5C28.6045 2.5 29.5 3.3955 29.5 4.5V27.5C29.5 28.6045 28.6045 29.5 27.5 29.5H21.5002" stroke="#D2221C" stroke-miterlimit="10" stroke-linecap="round" stroke-linejoin="round"/>
</svg>
