<svg width="32" height="32" viewBox="0 0 32 32" fill="none" xmlns="http://www.w3.org/2000/svg">
<path d="M16.004 31C13.136 31 10.358 30.189 7.954 28.653L2.606 30.362C2.427 30.419 2.23 30.371 2.097 30.237C1.965 30.103 1.919 29.905 1.98 29.727L3.705 24.581C1.935 22.061 1 19.1 1 16C1 11.924 2.612 8.109 5.539 5.258C5.736 5.066 6.053 5.07 6.246 5.267C6.438 5.465 6.434 5.782 6.236 5.974C3.505 8.636 2 12.196 2 16C2 18.974 2.922 21.811 4.665 24.204C4.76 24.335 4.786 24.504 4.734 24.658L3.242 29.11L7.875 27.629C8.019 27.582 8.177 27.605 8.304 27.688C10.589 29.2 13.252 30 16.004 30C23.722 30 30 23.72 30 16C30 8.281 23.722 2 16.004 2H16.001C13.834 2 11.763 2.481 9.837 3.429C9.589 3.55 9.29 3.449 9.168 3.202C9.046 2.955 9.147 2.654 9.396 2.532C11.46 1.516 13.682 1 15.996 1C24.272 1 31 7.729 31 16C31 24.271 24.272 31 16.004 31Z" fill="#D2221C"/>
<path d="M20.602 24.4928C19.591 24.4928 18.18 24.1028 16.163 23.2668C13.53 22.1768 10.92 19.8928 8.81301 16.8378L8.73801 16.7308C8.04201 15.7798 6.91501 13.9578 6.91501 12.0558C6.91501 9.82684 8.03001 8.69584 8.50701 8.21284C8.95601 7.75184 9.62701 7.50684 10.381 7.50684C10.571 7.50684 10.741 7.51584 10.896 7.52484C11.531 7.54984 11.899 7.70984 12.249 8.54684L12.612 9.42684C12.996 10.3578 13.469 11.5068 13.543 11.6618C13.625 11.8308 13.874 12.3498 13.597 12.8898C13.449 13.2058 13.304 13.3728 13.105 13.6028C12.965 13.7638 12.872 13.8638 12.777 13.9638C12.667 14.0818 12.555 14.1978 12.443 14.3388C12.25 14.5648 12.25 14.5648 12.315 14.6778C12.685 15.3028 13.472 16.5028 14.568 17.4778C15.99 18.7428 17.139 19.2078 17.691 19.4318L17.828 19.4878C17.973 19.5478 18.156 19.5908 18.293 19.4458C18.541 19.1788 18.855 18.7398 19.187 18.2748L19.386 17.9958C19.735 17.5028 20.165 17.3988 20.464 17.3988C20.639 17.3988 20.821 17.4338 21.007 17.5038C21.472 17.6658 23.919 18.8848 23.944 18.8968L24.179 19.0118C24.529 19.1798 24.805 19.3128 24.963 19.5908C25.192 19.9888 25.102 21.0328 24.754 22.0178C24.337 23.1968 22.787 24.1178 21.541 24.3858C21.293 24.4378 20.998 24.4928 20.602 24.4928ZM10.38 8.50684C9.90801 8.50684 9.47801 8.64884 9.25601 8.87584C8.79501 9.34384 7.91401 10.2368 7.91401 12.0558C7.91401 13.2368 8.49901 14.7138 9.51901 16.1068L9.63501 16.2718C11.633 19.1698 14.087 21.3268 16.544 22.3438C18.437 23.1288 19.726 23.4938 20.601 23.4938C20.901 23.4938 21.124 23.4518 21.328 23.4088C22.301 23.1988 23.526 22.4798 23.807 21.6848C24.111 20.8278 24.105 20.1688 24.069 20.0378C24.067 20.0688 23.887 19.9838 23.742 19.9138L23.493 19.7918C22.792 19.4408 20.98 18.5558 20.663 18.4448C20.579 18.4128 20.515 18.3998 20.461 18.3998C20.416 18.3998 20.323 18.3998 20.197 18.5778L19.997 18.8578C19.646 19.3498 19.315 19.8138 19.021 20.1298C18.644 20.5328 17.997 20.6448 17.44 20.4128L17.313 20.3608C16.756 20.1358 15.451 19.6078 13.9 18.2278C12.704 17.1618 11.851 15.8648 11.449 15.1858C11.026 14.4568 11.455 13.9548 11.661 13.7138C11.792 13.5508 11.92 13.4158 12.048 13.2798C12.132 13.1908 12.216 13.1018 12.302 13.0018C12.527 12.7428 12.601 12.6568 12.698 12.4498C12.727 12.3928 12.743 12.3118 12.639 12.0958C12.563 11.9358 12.077 10.7618 11.686 9.80984L11.324 8.93284C11.159 8.53684 11.159 8.53684 10.845 8.52484C10.701 8.51484 10.549 8.50684 10.38 8.50684Z" fill="#D2221C"/>
<path d="M7.5 4.5C7.77614 4.5 8 4.27614 8 4C8 3.72386 7.77614 3.5 7.5 3.5C7.22386 3.5 7 3.72386 7 4C7 4.27614 7.22386 4.5 7.5 4.5Z" fill="#D2221C"/>
</svg>
