<svg width="32" height="32" viewBox="0 0 32 32" fill="none" xmlns="http://www.w3.org/2000/svg">
<path d="M11.343 27.977C11.087 27.908 10.9 27.694 10.865 27.432C10.707 26.35 10.511 24.36 10.911 22.669L12.347 16.583C12.41 16.314 12.68 16.147 12.949 16.211C13.218 16.275 13.384 16.544 13.32 16.813L11.884 22.899C11.606 24.08 11.652 25.45 11.752 26.458C12.311 25.665 13.029 24.497 13.343 23.357C13.49 22.822 14.19 20.052 14.19 20.052C14.24 19.851 14.41 19.702 14.616 19.677C14.819 19.651 15.02 19.758 15.118 19.942C15.435 20.549 16.459 21.177 17.621 21.177C21.159 21.177 23.63 17.983 23.63 13.41C23.63 10.259 20.96 6.99998 16.493 6.99998C10.891 6.99998 8.37201 11.114 8.37201 14.035C8.37201 15.656 8.86301 16.962 9.75601 17.712C9.85401 17.794 9.95801 17.776 9.99801 17.765C10.048 17.751 10.137 17.712 10.176 17.599L10.424 16.891C10.453 16.806 10.401 16.712 10.376 16.676C9.93801 16.021 9.72401 15.255 9.72401 14.335C9.72401 10.756 12.492 8.05798 16.162 8.05798C19.515 8.05798 21.681 10.069 21.681 13.181C21.681 17.122 19.822 20.094 17.357 20.094C16.568 20.094 15.85 19.76 15.389 19.177C14.942 18.612 14.792 17.894 14.967 17.156C15.101 16.592 15.28 16.012 15.453 15.449C15.743 14.508 16.017 13.619 16.017 12.991C16.017 12.597 15.908 11.68 14.89 11.68C13.866 11.68 13.064 12.832 13.064 14.302C13.064 14.578 12.84 14.802 12.564 14.802C12.288 14.802 12.064 14.578 12.064 14.302C12.064 12.271 13.305 10.68 14.89 10.68C16.162 10.68 17.017 11.609 17.017 12.991C17.017 13.77 16.721 14.729 16.408 15.744C16.241 16.286 16.068 16.844 15.939 17.387C15.836 17.822 15.919 18.237 16.172 18.557C16.443 18.899 16.874 19.095 17.356 19.095C19.22 19.095 20.68 16.498 20.68 13.182C20.68 10.639 18.949 9.05898 16.161 9.05898C12.629 9.05898 10.723 11.778 10.723 14.336C10.723 15.051 10.881 15.636 11.206 16.122C11.434 16.462 11.491 16.863 11.367 17.222L11.119 17.93C10.983 18.321 10.662 18.62 10.262 18.73C9.85801 18.84 9.42901 18.745 9.11201 18.478C7.99001 17.535 7.37201 15.957 7.37201 14.036C7.37201 10.086 10.784 6.00098 16.493 6.00098C21.586 6.00098 24.63 9.76898 24.63 13.411C24.63 18.491 21.683 22.178 17.621 22.178C16.618 22.178 15.616 21.81 14.923 21.234C14.704 22.096 14.4 23.29 14.309 23.623C13.854 25.272 12.712 26.891 12.072 27.709C11.921 27.901 11.72 28 11.515 28C11.457 28 11.399 27.992 11.343 27.977Z" fill="#D2221C"/>
<path d="M15.737 31C7.474 31 1 24.411 1 16C1 12.371 2.237 8.889 4.485 6.196C4.663 5.983 4.978 5.956 5.189 6.133C5.401 6.31 5.43 6.625 5.253 6.837C3.155 9.35 2 12.604 2 16C2 23.851 8.034 30 15.737 30C23.602 30 30 23.72 30 16C30 8.28 23.602 2 15.737 2C13.297 2 10.924 2.62 8.879 3.792C8.641 3.925 8.334 3.847 8.197 3.606C8.06 3.366 8.143 3.061 8.383 2.923C10.579 1.665 13.122 1 15.737 1C24.153 1 31 7.729 31 16C31 24.271 24.153 31 15.737 31Z" fill="#D2221C"/>
<path d="M7.543 4.55176C7.543 4.82676 7.318 5.05176 7.043 5.05176C6.768 5.05176 6.543 4.82676 6.543 4.55176C6.543 4.27676 6.768 4.05176 7.043 4.05176C7.318 4.05176 7.543 4.27576 7.543 4.55176Z" fill="#D2221C"/>
</svg>
