<svg width="15" height="18" viewBox="0 0 15 18" fill="none" xmlns="http://www.w3.org/2000/svg">
<path d="M15 4.71429C15 6.48884 13.5603 7.92857 11.7857 7.92857C10.8181 7.92857 9.95089 7.5 9.36161 6.82366L6.35826 8.32701C6.40513 8.54464 6.42857 8.76897 6.42857 9C6.42857 9.23103 6.40513 9.45536 6.35826 9.67299L9.36161 11.1763C9.95089 10.5 10.8181 10.0714 11.7857 10.0714C13.5603 10.0714 15 11.5112 15 13.2857C15 15.0603 13.5603 16.5 11.7857 16.5C10.0112 16.5 8.57143 15.0603 8.57143 13.2857C8.57143 13.0547 8.59487 12.8304 8.64174 12.6127L5.63839 11.1094C5.04911 11.7857 4.18192 12.2143 3.21429 12.2143C1.43973 12.2143 0 10.7746 0 9C0 7.22545 1.43973 5.78571 3.21429 5.78571C4.18192 5.78571 5.04911 6.21428 5.63839 6.89062L8.64174 5.38728C8.59487 5.16964 8.57143 4.94531 8.57143 4.71429C8.57143 2.93973 10.0112 1.5 11.7857 1.5C13.5603 1.5 15 2.93973 15 4.71429ZM3.21429 10.6071C3.64053 10.6071 4.04931 10.4378 4.35071 10.1364C4.65211 9.83502 4.82143 9.42624 4.82143 9C4.82143 8.57376 4.65211 8.16498 4.35071 7.86358C4.04931 7.56218 3.64053 7.39286 3.21429 7.39286C2.78804 7.39286 2.37926 7.56218 2.07786 7.86358C1.77647 8.16498 1.60714 8.57376 1.60714 9C1.60714 9.42624 1.77647 9.83502 2.07786 10.1364C2.37926 10.4378 2.78804 10.6071 3.21429 10.6071ZM13.3929 4.71429C13.3929 4.50323 13.3513 4.29425 13.2705 4.09926C13.1898 3.90427 13.0714 3.7271 12.9221 3.57786C12.7729 3.42863 12.5957 3.31025 12.4007 3.22948C12.2058 3.14871 11.9968 3.10714 11.7857 3.10714C11.5747 3.10714 11.3657 3.14871 11.1707 3.22948C10.9757 3.31025 10.7985 3.42863 10.6493 3.57786C10.5001 3.7271 10.3817 3.90427 10.3009 4.09926C10.2201 4.29425 10.1786 4.50323 10.1786 4.71429C10.1786 4.92534 10.2201 5.13432 10.3009 5.32931C10.3817 5.5243 10.5001 5.70147 10.6493 5.85071C10.7985 5.99994 10.9757 6.11833 11.1707 6.19909C11.3657 6.27986 11.5747 6.32143 11.7857 6.32143C11.9968 6.32143 12.2058 6.27986 12.4007 6.19909C12.5957 6.11833 12.7729 5.99994 12.9221 5.85071C13.0714 5.70147 13.1898 5.5243 13.2705 5.32931C13.3513 5.13432 13.3929 4.92534 13.3929 4.71429ZM11.7857 14.8929C12.212 14.8929 12.6207 14.7235 12.9221 14.4221C13.2235 14.1207 13.3929 13.712 13.3929 13.2857C13.3929 12.8595 13.2235 12.4507 12.9221 12.1493C12.6207 11.8479 12.212 11.6786 11.7857 11.6786C11.3595 11.6786 10.9507 11.8479 10.6493 12.1493C10.3479 12.4507 10.1786 12.8595 10.1786 13.2857C10.1786 13.712 10.3479 14.1207 10.6493 14.4221C10.9507 14.7235 11.3595 14.8929 11.7857 14.8929Z" fill="white"/>
</svg>
