<svg width="32" height="32" viewBox="0 0 32 32" fill="none" xmlns="http://www.w3.org/2000/svg">
<path d="M26.0689 5.80275C23.38 3.1075 19.7992 1.625 15.9936 1.625C8.13868 1.625 1.74693 8.01681 1.74693 15.8716C1.74693 18.3807 2.40156 20.8322 3.64656 22.9949L1.62512 30.3749L9.17837 28.3919C11.2576 29.5277 13.5999 30.1246 15.9872 30.1246H15.9936C23.8421 30.1246 30.3749 23.7328 30.3749 15.8781C30.3749 12.0725 28.7578 8.49806 26.0689 5.80275Z" fill="#2CB742"/>
<path d="M15.9936 27.7244C13.863 27.7244 11.7773 27.1533 9.96118 26.0752L9.53125 25.8185L5.05187 26.9928L6.24556 22.6226L5.96318 22.1734C4.776 20.2866 4.15343 18.1112 4.15343 15.8715C4.15343 9.34499 9.46706 4.03149 16 4.03149C19.1637 4.03149 22.1349 5.26362 24.3682 7.50324C26.6014 9.74293 27.9748 12.7142 27.9684 15.878C27.9684 22.411 22.5199 27.7244 15.9936 27.7244Z" fill="white"/>
<path d="M22.4879 18.8557C22.135 18.6762 20.3831 17.816 20.0558 17.7007C19.7285 17.5787 19.4911 17.521 19.2537 17.8804C19.0162 18.2398 18.336 19.0354 18.1241 19.2794C17.9188 19.5169 17.707 19.5489 17.3541 19.3692C15.262 18.3233 13.8888 17.5019 12.509 15.1337C12.1432 14.5049 12.8749 14.5497 13.555 13.1894C13.6706 12.9518 13.6129 12.7465 13.5229 12.5668C13.4331 12.3871 12.7208 10.6352 12.4256 9.92279C12.1368 9.22973 11.8416 9.32598 11.6234 9.31317C11.4181 9.30029 11.1805 9.30029 10.9432 9.30029C10.7057 9.30029 10.3207 9.39017 9.99337 9.74311C9.66612 10.1025 8.74837 10.9625 8.74837 12.7144C8.74837 14.4664 10.0254 16.1606 10.1987 16.398C10.3783 16.6354 12.7079 20.2292 16.2823 21.7758C18.5413 22.7512 19.4269 22.8345 20.5564 22.6677C21.243 22.565 22.6614 21.8078 22.9565 20.9735C23.2517 20.1394 23.2517 19.4271 23.1618 19.2795C23.0784 19.1189 22.8409 19.0291 22.4879 18.8557Z" fill="#2CB742"/>
</svg>
