<svg width="20" height="20" viewBox="0 0 20 20" fill="none" xmlns="http://www.w3.org/2000/svg">
<path d="M12.5442 11.6667L8.33333 18.3333L6.66667 18.3333L8.77167 11.6667L4.305 11.6667L2.91667 14.1667L1.66667 14.1667L2.5 10.4167L1.66667 6.66667L2.91667 6.66667L4.30583 9.16667L8.7725 9.16667L6.66667 2.5L8.33333 2.5L12.5442 9.16667L17.0833 9.16667C17.4149 9.16667 17.7328 9.29836 17.9672 9.53278C18.2016 9.7672 18.3333 10.0851 18.3333 10.4167C18.3333 10.7482 18.2016 11.0661 17.9672 11.3006C17.7328 11.535 17.4149 11.6667 17.0833 11.6667L12.5442 11.6667Z" fill="white"/>
</svg>
